<svg width="204" height="264" viewBox="0 0 204 264" fill="none" xmlns="http://www.w3.org/2000/svg">
<path fill-rule="evenodd" clip-rule="evenodd" d="M109.933 127.642V150.174L126.689 130.519V137.067L110.024 164.165C110.024 215.432 110.024 241.944 110.024 243.702C111.891 246.57 119.593 249.864 118.657 252.292C118.657 252.292 115.749 252.292 109.933 252.292L101.933 246.896L97.7173 240.072V134.298L109.933 127.642Z" fill="white"/>
<path d="M115.515 252.292C104.143 248.279 98.5499 243.999 98.5499 234.317C98.5499 224.634 98.5499 147.143 98.5499 133.924C98.5499 130.925 90.6417 121.979 88.1057 129.376C87 134.5 87.5 153.5 87.5 162.5C80.5039 158.661 71.1115 153.618 58.1111 146.876L56 151L74.7208 161.65L81.5 167.5L88 175.5L88.5 208.5V242C88.5 245.577 82.5 248 77 252C105.899 252.571 118.807 252.863 115.515 252.292Z" fill="#CFF09E"/>
<path fill-rule="evenodd" clip-rule="evenodd" d="M87.6388 125.327V163.161C84.8812 160.909 80.87 158.498 75.6052 155.929C70.3404 153.361 64.3496 151.576 57.6326 150.576L56.3506 154.593C62.7155 155.162 68.4573 157.231 73.576 160.801C78.6947 164.37 83.3823 169.222 87.6388 175.354C89.0198 218.539 89.0198 241.321 87.6388 243.702C85.5674 247.273 74.8764 251.597 77.7314 252.292C89.7228 252.292 100.961 252.292 116.939 252.292C123.751 252.292 110.024 245.775 110.024 243.702C110.024 242.32 110.024 215.807 110.024 164.165L133.19 125.327V123.152L110.024 150.576V125.327H87.6388Z" stroke="#3B8686" stroke-linejoin="round"/>
<path d="M92.566 210.283L92.5317 231.635" stroke="#3B8686" stroke-linecap="round" stroke-linejoin="round"/>
<path d="M92.5314 204.166C92.91 204.166 93.2169 203.859 93.2169 203.481C93.2169 203.102 92.91 202.795 92.5314 202.795C92.1528 202.795 91.8459 203.102 91.8459 203.481C91.8459 203.859 92.1528 204.166 92.5314 204.166Z" fill="#3B8686"/>
<path d="M92.5316 207.388C92.9102 207.388 93.2171 207.081 93.2171 206.703C93.2171 206.324 92.9102 206.017 92.5316 206.017C92.1531 206.017 91.8462 206.324 91.8462 206.703C91.8462 207.081 92.1531 207.388 92.5316 207.388Z" fill="#3B8686"/>
<path fill-rule="evenodd" clip-rule="evenodd" d="M98.1505 1L161.191 34.3826V100.923L93.7592 138.055L31.7085 100.903V34.3699L98.1505 1Z" fill="#A8DBA8" stroke="#3B8686" stroke-linejoin="round"/>
<path fill-rule="evenodd" clip-rule="evenodd" d="M120.264 51.5225H173.86L203 95.8098L178.325 143.99H153.426H128.526L95.8579 97.8221L120.264 51.5225Z" fill="#A8DBA8" stroke="#3B8686" stroke-linejoin="round"/>
<path fill-rule="evenodd" clip-rule="evenodd" d="M39.8806 86.5073L75.5776 109.071V149.67L39.8367 168.76L1 145.436V109.05L39.8806 86.5073Z" fill="#A8DBA8" stroke="#3B8686" stroke-linejoin="round"/>
<path d="M31.9156 252.538L40.7821 239.528L31.1494 227.075L16.3295 232.389L16.803 248.125L31.9156 252.538Z" fill="#FFFFFE" stroke="#3B8686" stroke-linejoin="round"/>
<path d="M21.2484 245.7C20.3838 241.167 25.1846 237.226 35.6505 233.876L33.9976 231.752L17.0731 237.959L17.4063 247.658L31.6581 251.819L32.8322 250.11C26.2448 247.325 24.4772 247.176 21.2484 245.7Z" fill="#CFF09E"/>
<path d="M21.3134 217.114L17.5183 218.474L20.0451 225.522L23.8402 224.161L21.3134 217.114Z" fill="#6EBD95" stroke="#3B8686" stroke-linejoin="round"/>
<path d="M34.4787 220.435L9.53979 229.376L12.9829 238.98L37.9218 230.039L34.4787 220.435Z" fill="#6EBD95" stroke="#3B8686" stroke-linejoin="round"/>
<path d="M25.7257 247.828C26.0679 247.705 26.2459 247.329 26.1232 246.986C26.0005 246.644 25.6237 246.466 25.2815 246.589C24.9393 246.712 24.7613 247.088 24.884 247.431C25.0067 247.773 25.3835 247.951 25.7257 247.828Z" fill="#3B8686"/>
<path d="M20.8592 239.739L20.9383 245.567L23.289 246.517" stroke="#3B8686" stroke-linecap="round" stroke-linejoin="round"/>
<path d="M34.2422 221.174L28.626 233.068" stroke="#3B8686" stroke-linecap="square"/>
<path d="M29.1296 222.657L23.5135 234.551" stroke="#3B8686" stroke-linecap="square"/>
<path d="M24.2004 224.512L18.5843 236.405" stroke="#3B8686" stroke-linecap="square"/>
<path d="M19.2161 226.211L13.5999 238.105" stroke="#3B8686" stroke-linecap="square"/>
<path d="M14.5798 227.831L11.5492 234.249" stroke="#3B8686" stroke-linecap="square"/>
<path d="M36.1345 225.785L33.5013 231.361" stroke="#3B8686" stroke-linecap="square"/>
<path d="M10.5593 229.664L22.453 235.28" stroke="#3B8686" stroke-linecap="square"/>
<path d="M11.4658 234.017L17.5465 237.081" stroke="#3B8686" stroke-linecap="square"/>
<path d="M29.7598 222.389L35.8346 225.193" stroke="#3B8686" stroke-linecap="square"/>
<path d="M15.45 227.561L27.3437 233.177" stroke="#3B8686" stroke-linecap="square"/>
<path d="M20.4346 225.861L32.3283 231.477" stroke="#3B8686" stroke-linecap="square"/>
<path d="M25.3635 224.007L37.2572 229.623" stroke="#3B8686" stroke-linecap="square"/>
<path d="M41.8458 252.503L57.5887 252.362L62.319 237.345L49.4995 228.206L36.8464 237.574L41.8458 252.503Z" fill="#FFFFFE" stroke="#3B8686" stroke-linejoin="round"/>
<path d="M41.3747 239.841C44.6035 236.545 50.5793 238.239 59.3023 244.922L60.104 242.353L45.3492 231.996L37.574 237.803L42.2887 251.882L44.3621 251.871C42.8905 244.872 42.0044 243.335 41.3747 239.841Z" fill="#CFF09E"/>
<path d="M64.8875 223.584L61.6047 221.244L57.2585 227.34L60.5412 229.681L64.8875 223.584Z" fill="#6EBD95" stroke="#3B8686" stroke-linejoin="round"/>
<path d="M69.6719 236.291L48.0994 220.912L42.177 229.219L63.7495 244.598L69.6719 236.291Z" fill="#6EBD95" stroke="#3B8686" stroke-linejoin="round"/>
<path d="M42.1817 244.733C42.4777 244.944 42.8887 244.875 43.0997 244.579C43.3108 244.283 43.2419 243.872 42.9459 243.661C42.6499 243.45 42.2388 243.519 42.0278 243.815C41.8168 244.111 41.8857 244.522 42.1817 244.733Z" fill="#3B8686"/>
<path d="M46.0475 236.121L41.3066 239.511L41.8682 241.983" stroke="#3B8686" stroke-linecap="round" stroke-linejoin="round"/>
<path d="M68.9299 236.519L55.9579 238.693" stroke="#3B8686" stroke-linecap="square"/>
<path d="M64.7947 233.166L51.8226 235.34" stroke="#3B8686" stroke-linecap="square"/>
<path d="M60.459 230.176L47.4869 232.351" stroke="#3B8686" stroke-linecap="square"/>
<path d="M56.2192 227.052L43.2472 229.226" stroke="#3B8686" stroke-linecap="square"/>
<path d="M52.2437 224.169L45.2435 225.343" stroke="#3B8686" stroke-linecap="square"/>
<path d="M66.2231 240.703L60.1411 241.723" stroke="#3B8686" stroke-linecap="square"/>
<path d="M48.4441 221.914L50.6183 234.886" stroke="#3B8686" stroke-linecap="square"/>
<path d="M45.3867 225.142L46.3398 231.884" stroke="#3B8686" stroke-linecap="square"/>
<path d="M65.3745 233.531L66.5379 240.12" stroke="#3B8686" stroke-linecap="square"/>
<path d="M52.9614 224.73L55.1357 237.703" stroke="#3B8686" stroke-linecap="square"/>
<path d="M57.2017 227.854L59.3759 240.826" stroke="#3B8686" stroke-linecap="square"/>
<path d="M61.5369 230.844L63.7111 243.816" stroke="#3B8686" stroke-linecap="square"/>
<path d="M159.569 251.582L164.332 236.577L151.533 227.41L138.859 236.75L143.825 251.689L159.569 251.582Z" fill="#FFFFFE" stroke="#3B8686" stroke-linejoin="round"/>
<path d="M147.389 248.091C145.261 243.997 148.73 238.844 157.795 232.633L155.603 231.072L141.169 241.873L144.27 251.069L159.116 250.968L159.751 248.994C152.642 248.215 150.906 248.579 147.389 248.091Z" fill="#CFF09E"/>
<path d="M139.253 220.687L136.008 223.079L140.449 229.106L143.695 226.715L139.253 220.687Z" fill="#6EBD95" stroke="#3B8686" stroke-linejoin="round"/>
<path d="M152.818 220.094L131.491 235.811L137.543 244.024L158.871 228.307L152.818 220.094Z" fill="#6EBD95" stroke="#3B8686" stroke-linejoin="round"/>
<path d="M152.289 248.846C152.581 248.63 152.644 248.218 152.428 247.925C152.212 247.633 151.8 247.57 151.508 247.786C151.215 248.001 151.153 248.414 151.368 248.706C151.584 248.999 151.996 249.061 152.289 248.846Z" fill="#3B8686"/>
<path d="M145.307 242.493L147.054 248.053L149.578 248.289" stroke="#3B8686" stroke-linecap="round" stroke-linejoin="round"/>
<path d="M152.803 220.869L150.834 233.874" stroke="#3B8686" stroke-linecap="square"/>
<path d="M148.331 223.756L146.361 236.761" stroke="#3B8686" stroke-linecap="square"/>
<path d="M144.14 226.946L142.171 239.951" stroke="#3B8686" stroke-linecap="square"/>
<path d="M139.853 230.004L137.883 243.009" stroke="#3B8686" stroke-linecap="square"/>
<path d="M135.876 232.885L134.813 239.903" stroke="#3B8686" stroke-linecap="square"/>
<path d="M155.938 224.744L155.015 230.841" stroke="#3B8686" stroke-linecap="square"/>
<path d="M132.55 235.794L145.555 237.764" stroke="#3B8686" stroke-linecap="square"/>
<path d="M134.667 239.704L141.371 240.896" stroke="#3B8686" stroke-linecap="square"/>
<path d="M148.858 223.318L155.481 224.262" stroke="#3B8686" stroke-linecap="square"/>
<path d="M136.632 232.377L149.637 234.347" stroke="#3B8686" stroke-linecap="square"/>
<path d="M140.92 229.319L153.925 231.289" stroke="#3B8686" stroke-linecap="square"/>
<path d="M145.11 226.129L158.115 228.099" stroke="#3B8686" stroke-linecap="square"/>
<path d="M161.247 97.9233L173.983 88.6695L169.118 73.6965H153.375L148.51 88.6695L161.247 97.9233Z" fill="#FFFFFE" stroke="#3B8686" stroke-linejoin="round"/>
<path d="M153.513 87.8871C154.229 83.3291 160.078 81.2393 171.06 81.6178L170.221 79.0601L152.195 79.1916L149.235 88.4342L161.246 97.161L162.928 95.9485C157.667 91.1037 156.054 90.3669 153.513 87.8871Z" fill="#CFF09E"/>
<path d="M163.221 61H159.19V68.4872H163.221V61Z" fill="#6EBD95" stroke="#3B8686" stroke-linejoin="round"/>
<path d="M174.493 68.5696H148V78.7719H174.493V68.5696Z" fill="#6EBD95" stroke="#3B8686" stroke-linejoin="round"/>
<path d="M157.009 91.4014C157.373 91.4014 157.668 91.1067 157.668 90.7432C157.668 90.3797 157.373 90.085 157.009 90.085C156.646 90.085 156.351 90.3797 156.351 90.7432C156.351 91.1067 156.646 91.4014 157.009 91.4014Z" fill="#3B8686"/>
<path d="M155.158 82.145L153.266 87.6576L155.158 89.3447" stroke="#3B8686" stroke-linecap="round" stroke-linejoin="round"/>
<path d="M174.021 69.1853L164.721 78.4859" stroke="#3B8686" stroke-linecap="square"/>
<path d="M168.708 68.8564L159.407 78.157" stroke="#3B8686" stroke-linecap="square"/>
<path d="M163.442 68.9387L154.142 78.2393" stroke="#3B8686" stroke-linecap="square"/>
<path d="M158.176 68.8564L148.876 78.157" stroke="#3B8686" stroke-linecap="square"/>
<path d="M153.266 68.8167L148.247 73.8355" stroke="#3B8686" stroke-linecap="square"/>
<path d="M174.246 74.1646L169.886 78.5252" stroke="#3B8686" stroke-linecap="square"/>
<path d="M148.863 69.1853L158.163 78.4859" stroke="#3B8686" stroke-linecap="square"/>
<path d="M148.247 73.5889L152.937 78.5255" stroke="#3B8686" stroke-linecap="square"/>
<path d="M169.392 68.8167L174.164 73.5064" stroke="#3B8686" stroke-linecap="square"/>
<path d="M154.176 68.8564L163.476 78.157" stroke="#3B8686" stroke-linecap="square"/>
<path d="M159.442 68.9387L168.742 78.2393" stroke="#3B8686" stroke-linecap="square"/>
<path d="M164.707 68.8564L174.008 78.157" stroke="#3B8686" stroke-linecap="square"/>
<path d="M138.247 130.923L150.983 121.67L146.118 106.697H130.375L125.51 121.67L138.247 130.923Z" fill="#FFFFFE" stroke="#3B8686" stroke-linejoin="round"/>
<path d="M130.513 120.887C131.229 116.329 137.078 114.239 148.06 114.618L147.221 112.06L129.195 112.192L126.235 121.434L138.246 130.161L139.928 128.949C134.667 124.104 133.054 123.367 130.513 120.887Z" fill="#CFF09E"/>
<path d="M140.221 94H136.19V101.487H140.221V94Z" fill="#6EBD95" stroke="#3B8686" stroke-linejoin="round"/>
<path d="M151.493 101.57H125V111.772H151.493V101.57Z" fill="#6EBD95" stroke="#3B8686" stroke-linejoin="round"/>
<path d="M134.009 124.401C134.373 124.401 134.668 124.107 134.668 123.743C134.668 123.38 134.373 123.085 134.009 123.085C133.646 123.085 133.351 123.38 133.351 123.743C133.351 124.107 133.646 124.401 134.009 124.401Z" fill="#3B8686"/>
<path d="M132.158 115.145L130.266 120.658L132.158 122.345" stroke="#3B8686" stroke-linecap="round" stroke-linejoin="round"/>
<path d="M151.021 102.185L141.721 111.486" stroke="#3B8686" stroke-linecap="square"/>
<path d="M145.708 101.856L136.407 111.157" stroke="#3B8686" stroke-linecap="square"/>
<path d="M140.442 101.938L131.142 111.239" stroke="#3B8686" stroke-linecap="square"/>
<path d="M135.176 101.856L125.876 111.157" stroke="#3B8686" stroke-linecap="square"/>
<path d="M130.266 101.816L125.247 106.835" stroke="#3B8686" stroke-linecap="square"/>
<path d="M151.246 107.165L146.886 111.525" stroke="#3B8686" stroke-linecap="square"/>
<path d="M125.863 102.185L135.163 111.486" stroke="#3B8686" stroke-linecap="square"/>
<path d="M125.247 106.588L129.937 111.525" stroke="#3B8686" stroke-linecap="square"/>
<path d="M146.392 101.816L151.164 106.506" stroke="#3B8686" stroke-linecap="square"/>
<path d="M131.176 101.856L140.476 111.157" stroke="#3B8686" stroke-linecap="square"/>
<path d="M136.442 101.938L145.742 111.239" stroke="#3B8686" stroke-linecap="square"/>
<path d="M141.707 101.856L151.008 111.157" stroke="#3B8686" stroke-linecap="square"/>
<path d="M38.2466 146.923L50.9834 137.67L46.1183 122.697H30.3748L25.5098 137.67L38.2466 146.923Z" fill="#FFFFFE" stroke="#3B8686" stroke-linejoin="round"/>
<path d="M30.5128 136.887C31.2285 132.329 37.0777 130.239 48.0602 130.618L47.2213 128.06L29.1948 128.192L26.2351 137.434L38.2465 146.161L39.9285 144.949C34.6674 140.104 33.0538 139.367 30.5128 136.887Z" fill="#CFF09E"/>
<path d="M40.2213 110H36.1897V117.487H40.2213V110Z" fill="#6EBD95" stroke="#3B8686" stroke-linejoin="round"/>
<path d="M51.4932 117.57H25V127.772H51.4932V117.57Z" fill="#6EBD95" stroke="#3B8686" stroke-linejoin="round"/>
<path d="M34.0093 140.401C34.3728 140.401 34.6675 140.107 34.6675 139.743C34.6675 139.38 34.3728 139.085 34.0093 139.085C33.6458 139.085 33.3511 139.38 33.3511 139.743C33.3511 140.107 33.6458 140.401 34.0093 140.401Z" fill="#3B8686"/>
<path d="M32.1582 131.145L30.2659 136.658L32.1582 138.345" stroke="#3B8686" stroke-linecap="round" stroke-linejoin="round"/>
<path d="M51.0212 118.185L41.7207 127.486" stroke="#3B8686" stroke-linecap="square"/>
<path d="M45.7078 117.856L36.4072 127.157" stroke="#3B8686" stroke-linecap="square"/>
<path d="M40.4421 117.938L31.1416 127.239" stroke="#3B8686" stroke-linecap="square"/>
<path d="M35.1763 117.856L25.8757 127.157" stroke="#3B8686" stroke-linecap="square"/>
<path d="M30.2656 117.816L25.2467 122.835" stroke="#3B8686" stroke-linecap="square"/>
<path d="M51.2463 123.165L46.8857 127.525" stroke="#3B8686" stroke-linecap="square"/>
<path d="M25.8625 118.185L35.1631 127.486" stroke="#3B8686" stroke-linecap="square"/>
<path d="M25.2468 122.588L29.9366 127.525" stroke="#3B8686" stroke-linecap="square"/>
<path d="M46.3921 117.816L51.1642 122.506" stroke="#3B8686" stroke-linecap="square"/>
<path d="M31.1758 117.856L40.4764 127.157" stroke="#3B8686" stroke-linecap="square"/>
<path d="M36.4417 117.938L45.7422 127.239" stroke="#3B8686" stroke-linecap="square"/>
<path d="M41.7073 117.856L51.0078 127.157" stroke="#3B8686" stroke-linecap="square"/>
<path d="M73.2466 73.9231L85.9834 64.6693L81.1183 49.6963H65.3748L60.5098 64.6693L73.2466 73.9231Z" fill="#FFFFFE" stroke="#3B8686" stroke-linejoin="round"/>
<path d="M65.5128 63.8871C66.2285 59.3291 72.0777 57.2393 83.0602 57.6178L82.2213 55.0601L64.1948 55.1916L61.2351 64.4342L73.2465 73.161L74.9285 71.9485C69.6674 67.1037 68.0538 66.3669 65.5128 63.8871Z" fill="#CFF09E"/>
<path d="M75.2213 37H71.1897V44.4872H75.2213V37Z" fill="#6EBD95" stroke="#3B8686" stroke-linejoin="round"/>
<path d="M86.4932 44.5696H60V54.7719H86.4932V44.5696Z" fill="#6EBD95" stroke="#3B8686" stroke-linejoin="round"/>
<path d="M69.0093 67.4011C69.3728 67.4011 69.6675 67.1065 69.6675 66.7429C69.6675 66.3794 69.3728 66.0847 69.0093 66.0847C68.6458 66.0847 68.3511 66.3794 68.3511 66.7429C68.3511 67.1065 68.6458 67.4011 69.0093 67.4011Z" fill="#3B8686"/>
<path d="M67.1582 58.1453L65.2659 63.6578L67.1582 65.3449" stroke="#3B8686" stroke-linecap="round" stroke-linejoin="round"/>
<path d="M86.0212 45.1853L76.7207 54.4859" stroke="#3B8686" stroke-linecap="square"/>
<path d="M80.7078 44.8564L71.4072 54.157" stroke="#3B8686" stroke-linecap="square"/>
<path d="M75.4421 44.9387L66.1416 54.2393" stroke="#3B8686" stroke-linecap="square"/>
<path d="M70.1763 44.8564L60.8757 54.157" stroke="#3B8686" stroke-linecap="square"/>
<path d="M65.2656 44.8167L60.2467 49.8355" stroke="#3B8686" stroke-linecap="square"/>
<path d="M86.2463 50.1646L81.8857 54.5252" stroke="#3B8686" stroke-linecap="square"/>
<path d="M60.8625 45.1853L70.1631 54.4859" stroke="#3B8686" stroke-linecap="square"/>
<path d="M60.2468 49.5889L64.9366 54.5255" stroke="#3B8686" stroke-linecap="square"/>
<path d="M81.3921 44.8167L86.1642 49.5064" stroke="#3B8686" stroke-linecap="square"/>
<path d="M66.1758 44.8564L75.4764 54.157" stroke="#3B8686" stroke-linecap="square"/>
<path d="M71.4417 44.9387L80.7422 54.2393" stroke="#3B8686" stroke-linecap="square"/>
<path d="M76.7073 44.8564L86.0078 54.157" stroke="#3B8686" stroke-linecap="square"/>
</svg>
